<svg width="57" height="65" viewBox="0 0 57 65" fill="none" xmlns="http://www.w3.org/2000/svg" preserveAspectRatio="none">
<path d="M23.2495 51.1875L17.2495 45.1875C15.9995 44.0625 15.9995 42.1875 17.2495 41.0625C18.3745 39.8125 20.2495 39.8125 21.3745 41.0625L25.1245 44.6875L34.9995 33.1875C36.1245 31.9375 37.9995 31.8125 39.2495 32.8125C40.4995 33.9375 40.6245 35.8125 39.6245 37.0625L27.6245 51.0625C26.9995 51.6875 26.2495 52.0625 25.3745 52.0625C24.4995 52.0625 23.7495 51.8125 23.2495 51.1875ZM48.3745 8.0625C52.7495 8.0625 56.3745 11.6875 56.3745 16.0625V56.0625C56.3745 60.5625 52.7495 64.0625 48.3745 64.0625H8.37451C3.87451 64.0625 0.374512 60.5625 0.374512 56.0625V16.0625C0.374512 11.6875 3.87451 8.0625 8.37451 8.0625H13.3745V3.0625C13.3745 1.4375 14.6245 0.0625 16.3745 0.0625C17.9995 0.0625 19.3745 1.4375 19.3745 3.0625V8.0625H37.3745V3.0625C37.3745 1.4375 38.6245 0.0625 40.3745 0.0625C41.9995 0.0625 43.3745 1.4375 43.3745 3.0625V8.0625H48.3745ZM50.3745 56.0625V24.0625H6.37451V56.0625C6.37451 57.1875 7.24951 58.0625 8.37451 58.0625H48.3745C49.3745 58.0625 50.3745 57.1875 50.3745 56.0625Z" fill="white"/>
</svg>
