<svg width="28" height="28" viewBox="0 0 28 28" fill="none" xmlns="http://www.w3.org/2000/svg">
<path d="M5.35014 0.9375C2.66338 0.9375 0.5 3.10088 0.5 5.78764V22.6498C0.5 25.3366 2.66338 27.5 5.35014 27.5H14.4893V17.1157H11.7434V13.377H14.4893V10.1829C14.4893 7.67342 16.1117 5.36928 19.8491 5.36928C21.3623 5.36928 22.4813 5.51455 22.4813 5.51455L22.3933 9.00587C22.3933 9.00587 21.2521 8.99509 20.0068 8.99509C18.659 8.99509 18.4429 9.61606 18.4429 10.647V13.3771H22.5003L22.3235 17.1157H18.4429V27.5H22.2123C24.8991 27.5 27.0624 25.3366 27.0624 22.6499V5.78767C27.0624 3.1009 24.8991 0.937527 22.2123 0.937527H5.35012L5.35014 0.9375Z" fill="white"/>
</svg>
