<svg width="28" height="28" viewBox="0 0 28 28" fill="none" xmlns="http://www.w3.org/2000/svg">
<path d="M14.2154 9.35228C11.7767 9.35228 9.78646 11.3425 9.78646 13.7812C9.78646 16.22 11.7767 18.2102 14.2154 18.2102C16.6542 18.2102 18.6444 16.22 18.6444 13.7812C18.6444 11.3425 16.6542 9.35228 14.2154 9.35228ZM27.499 13.7812C27.499 11.9472 27.5156 10.1298 27.4126 8.29903C27.3096 6.17259 26.8245 4.28538 25.2696 2.73042C23.7113 1.17214 21.8274 0.690374 19.701 0.587375C17.8669 0.484375 16.0495 0.500988 14.2188 0.500988C12.3847 0.500988 10.5673 0.484375 8.73653 0.587375C6.61009 0.690374 4.72288 1.17547 3.16792 2.73042C1.60964 4.2887 1.12787 6.17259 1.02487 8.29903C0.921875 10.1331 0.938488 11.9505 0.938488 13.7812C0.938488 15.612 0.921875 17.4327 1.02487 19.2635C1.12787 21.3899 1.61297 23.2771 3.16792 24.8321C4.7262 26.3904 6.61009 26.8721 8.73653 26.9751C10.5706 27.0781 12.388 27.0615 14.2188 27.0615C16.0528 27.0615 17.8702 27.0781 19.701 26.9751C21.8274 26.8721 23.7146 26.387 25.2696 24.8321C26.8279 23.2738 27.3096 21.3899 27.4126 19.2635C27.519 17.4327 27.499 15.6153 27.499 13.7812ZM14.2154 20.5958C10.4443 20.5958 7.40086 17.5524 7.40086 13.7812C7.40086 10.0101 10.4443 6.96668 14.2154 6.96668C17.9865 6.96668 21.03 10.0101 21.03 13.7812C21.03 17.5524 17.9865 20.5958 14.2154 20.5958ZM21.3091 8.27909C20.4286 8.27909 19.7176 7.56807 19.7176 6.68759C19.7176 5.80711 20.4286 5.09609 21.3091 5.09609C22.1896 5.09609 22.9006 5.80711 22.9006 6.68759C22.9009 6.89666 22.8599 7.10373 22.78 7.29694C22.7001 7.49015 22.5829 7.6657 22.435 7.81354C22.2872 7.96138 22.1117 8.0786 21.9184 8.15848C21.7252 8.23837 21.5182 8.27936 21.3091 8.27909Z" fill="white"/>
</svg>
