<?xml version="1.0" encoding="utf-8"?>
<!-- Generator: Adobe Illustrator 27.0.0, SVG Export Plug-In . SVG Version: 6.00 Build 0)  -->
<svg version="1.1" id="Layer_1" xmlns="http://www.w3.org/2000/svg" xmlns:xlink="http://www.w3.org/1999/xlink" x="0px" y="0px"
	 viewBox="0 0 512 512" style="enable-background:new 0 0 512 512;" xml:space="preserve">
<style type="text/css">
	.st0{fill:#F7941E;}
	.st1{fill:#C4122F;}
	.st2{fill:#636466;}
	.st3{fill:#FFFFFF;}
</style>
<g id="XMLID_1_">
	<path id="XMLID_42_" class="st0" d="M238.47,303.1c-32.18,53.54-79.29,77.09-80.02,77.53l-4.39,2.19l-10.53-21.07l4.39-2.19
		c26.77-13.46,55.15-43.15,70.36-68.61c2.78-4.53,5.12-9.07,7.31-13.9c-4.97,5.27-10.24,10.24-15.8,14.77
		c-48.57,39.35-100.94,45.35-101.81,45.49l-4.83,0.59l-2.63-23.41l4.83-0.59c29.84-3.51,66.56-21.65,89.53-40.37
		c4.1-3.36,7.9-6.88,11.56-10.53c-6.58,3.36-13.17,6.14-19.89,8.48c-59.1,20.33-110.3,8.05-111.18,7.9l-4.68-1.17l5.56-22.82
		l4.68,1.17c29.11,6.88,69.92,2.34,98.01-7.31c4.97-1.76,9.8-3.66,14.48-6c-7.31,0.88-14.48,1.32-21.5,1.17
		c-62.46-1.02-106.5-30.13-107.23-30.57l-4.1-2.63l13.02-19.6l4.1,2.63c25.01,16.53,64.95,26.19,94.65,26.62
		c5.27,0.15,10.39-0.15,15.65-0.73c-7.17-1.61-14.04-3.8-20.63-6.29c-58.37-22.38-89.67-64.66-90.26-65.39l-2.93-3.95l18.87-14.04
		l2.93,3.8c17.85,24.14,52.08,46.81,79.73,57.49c4.83,1.9,9.8,3.36,14.92,4.68c-6.14-3.95-11.85-8.34-17.26-12.87
		c-47.25-40.96-62.17-91.43-62.46-92.31l-1.32-4.68l22.53-6.73l1.32,4.68c8.63,28.67,32.91,61.73,55.3,81.19
		c3.95,3.51,8.05,6.58,12.43,9.51c-4.39-5.85-8.34-11.85-11.7-17.99c-30.28-54.71-27.21-107.23-27.06-108.11l0.29-4.83l23.41,1.46
		l-0.29,4.83c-1.76,29.99,9.8,69.34,24.14,95.23c2.49,4.53,5.41,8.92,8.34,13.17c-2.05-7.02-3.8-14.04-4.83-21.07
		c-9.8-61.73,11.12-110.01,11.56-110.88l1.9-4.39l21.5,9.36l-1.9,4.39c-11.85,27.5-14.48,68.46-9.8,97.72
		c0.88,5.12,1.9,10.24,3.36,15.36c0.44-7.31,1.32-14.48,2.63-21.5c12-61.44,48.13-99.62,48.71-100.21l3.36-3.51l17.12,16.24
		l-3.36,3.51c-20.63,21.8-37.01,59.39-42.72,88.5c-1.02,5.12-1.61,10.24-2.05,15.51c2.93-6.73,6.14-13.17,9.8-19.16
		c32.18-53.54,79.29-77.09,80.02-77.53l4.39-2.19l10.53,21.07l-4.39,2.19c-26.77,13.46-55.15,43.15-70.36,68.61
		c-2.63,4.53-5.12,9.07-7.17,13.9c4.97-5.27,10.24-10.24,15.8-14.77c48.57-39.35,100.94-45.35,101.81-45.49l4.83-0.59l2.63,23.41
		l-4.83,0.59c-29.84,3.51-66.56,21.65-89.67,40.37c-4.1,3.36-7.9,6.88-11.56,10.53c6.58-3.22,13.17-6.14,19.89-8.48
		c59.1-20.33,110.3-8.19,111.18-7.9l4.68,1.17l-5.56,22.82l-4.68-1.17c-29.11-6.88-69.92-2.34-98.01,7.31
		c-4.97,1.76-9.8,3.66-14.48,6c7.31-0.88,14.48-1.32,21.5-1.17c62.46,1.02,106.5,30.13,107.23,30.57l4.1,2.63l-13.02,19.6l-4.1-2.63
		c-25.01-16.53-64.95-26.19-94.5-26.62c-5.27-0.15-10.39,0.15-15.65,0.73c7.17,1.76,14.04,3.8,20.63,6.29
		c58.37,22.38,89.67,64.66,90.26,65.39l2.93,3.95l-18.87,14.04l-2.93-3.95c-17.85-24.14-52.08-46.81-79.73-57.49
		c-4.83-1.9-9.95-3.36-14.92-4.68c6.14,3.95,11.85,8.34,17.26,13.02c47.25,40.96,62.17,91.43,62.46,92.31l1.32,4.68l-22.53,6.73
		l-1.32-4.68c-8.63-28.82-32.91-61.73-55.3-81.19c-3.95-3.51-8.05-6.58-12.43-9.51c4.39,5.85,8.34,11.85,11.85,18.14
		c30.28,54.71,27.06,107.23,27.06,108.11l-0.29,4.83l-23.41-1.46l0.29-4.83c1.76-29.99-9.8-69.34-24.14-95.23
		c-2.49-4.53-5.41-8.92-8.34-13.17c2.05,7.02,3.8,14.04,4.83,20.92c9.8,61.73-11.12,110.01-11.56,110.88l-1.9,4.39l-21.5-9.36
		l1.9-4.39c11.85-27.5,14.48-68.46,9.8-97.72c-0.88-5.12-1.9-10.24-3.36-15.21c-0.44,7.31-1.17,14.48-2.63,21.36
		c-12,61.44-48.13,99.62-48.71,100.21l-3.36,3.51l-17.12-16.24l3.36-3.51c20.63-21.8,37.01-59.39,42.72-88.5
		c1.02-5.12,1.61-10.24,2.05-15.51C245.34,290.67,242.13,297.11,238.47,303.1L238.47,303.1z"/>
	<path id="XMLID_41_" class="st0" d="M237.15,285.4c-4.97,8.05-10.24,15.8-16.09,22.67c-44.62,53.1-100.21,70.66-101.08,70.95
		l-4.53,1.46l-7.46-23.7l4.53-1.46c31.89-10.09,68.32-37.89,89.53-63.2c4.53-5.56,8.78-11.26,12.58-17.41
		c-7.31,6-15.07,11.26-22.82,15.8c-59.98,34.67-118.35,32.18-119.22,32.18l-4.68-0.15l1.17-24.87l4.68,0.15
		c33.5,1.32,77.09-12.29,105.76-28.82c6.14-3.66,12.14-7.61,17.7-12c-8.92,3.07-17.99,5.41-26.92,7.02
		c-68.17,12-122.15-10.24-123.03-10.53l-4.39-1.76l9.51-22.97l4.39,1.76c31.01,12.73,76.65,14.77,109.13,9.07
		c7.02-1.32,13.9-3.07,20.77-5.27c-9.51-0.29-18.72-1.02-27.65-2.63c-68.17-12-111.32-51.35-111.91-52.08l-3.51-3.22l16.82-18.29
		l3.51,3.22c24.72,22.53,67,40.08,99.47,45.93c7.02,1.32,14.04,1.9,21.21,2.19c-8.78-3.51-17.26-7.31-25.01-11.85
		c-59.98-34.67-87.04-86.31-87.48-87.19l-2.19-4.24l21.94-11.41l2.19,4.24c15.51,29.7,49.15,60.56,77.82,77.09
		c6.14,3.51,12.58,6.58,19.16,9.36c-7.02-6.29-13.75-12.73-19.46-19.75c-44.47-53.1-52.22-110.88-52.37-111.76l-0.59-4.68
		l24.58-3.22l0.59,4.68c4.39,33.21,25.45,73.73,46.67,99.04c4.53,5.41,9.51,10.53,14.92,15.36c-4.53-8.34-8.48-16.68-11.56-25.16
		c-23.7-65.1-11.12-122-10.97-123.03l1.02-4.68l24.28,5.41l-1.02,4.53c-7.17,32.77-1.32,78.12,9.95,109.13
		c2.49,6.73,5.41,13.17,8.78,19.46c-1.46-9.36-2.19-18.58-2.19-27.65c0-69.34,31.31-118.49,31.74-119.22L257.92,0l20.92,13.31
		l-2.49,3.95c-17.85,28.23-27.94,72.85-27.94,105.91c0,7.17,0.59,14.34,1.61,21.36c1.9-9.22,4.24-18.29,7.31-26.77
		c23.7-65.1,69.92-100.64,70.66-101.23l3.8-2.93l15.07,19.75l-3.8,2.93c-26.48,20.48-51.2,58.95-62.46,89.97
		c-2.49,6.73-4.39,13.6-5.85,20.48c4.97-8.05,10.24-15.65,16.09-22.67c44.62-53.1,100.21-70.66,101.08-70.95l4.53-1.46l7.46,23.7
		l-4.53,1.46c-31.89,10.09-68.17,37.89-89.53,63.2c-4.53,5.41-8.78,11.26-12.43,17.26c7.31-5.85,14.92-11.26,22.82-15.8
		c59.98-34.67,118.35-32.18,119.22-32.18l4.68,0.15l-1.17,24.72L438.3,134c-33.5-1.46-77.09,12.29-105.76,28.82
		c-6.14,3.51-12,7.61-17.7,12c8.92-3.07,17.99-5.41,26.77-7.02c68.17-12,122.15,10.24,123.03,10.53l4.39,1.76l-9.51,22.97
		l-4.39-1.76c-31.01-12.73-76.65-14.77-109.13-9.07c-7.02,1.32-13.9,3.07-20.63,5.27c9.51,0.29,18.72,1.02,27.65,2.63
		c68.17,12,111.32,51.35,111.91,52.08l3.51,3.22l-16.82,18.29l-3.51-3.22c-24.72-22.53-67-40.08-99.47-45.93
		c-7.02-1.17-14.19-1.9-21.21-2.19c8.78,3.51,17.26,7.31,25.16,11.85c59.98,34.67,87.04,86.31,87.48,87.19l2.19,4.24l-21.94,11.41
		l-2.19-4.24c-15.51-29.7-49.15-60.56-77.82-77.09c-6.14-3.66-12.58-6.58-19.31-9.36c7.17,6.29,13.75,12.87,19.6,19.75
		c44.47,53.1,52.22,110.88,52.37,111.76l0.59,4.68l-24.58,3.22l-0.59-4.68c-4.39-33.21-25.45-73.73-46.81-99.04
		c-4.53-5.56-9.65-10.53-14.92-15.36c4.53,8.34,8.48,16.68,11.56,25.31c23.7,65.1,11.12,122.15,10.97,123.03l-1.02,4.68l-24.28-5.41
		l1.02-4.53c7.17-32.77,1.32-78.12-9.95-109.13c-2.49-6.73-5.41-13.17-8.78-19.46c1.46,9.36,2.19,18.58,2.19,27.65
		c0,69.34-31.31,118.49-31.74,119.22l-2.49,3.95l-20.92-13.31l2.49-3.95c17.85-28.23,27.94-72.85,27.94-105.91
		c0-7.17-0.59-14.19-1.61-21.21c-1.9,9.22-4.24,18.29-7.31,26.77c-23.7,65.1-69.92,100.64-70.66,101.23l-3.8,2.93l-15.07-19.75
		l3.8-2.93c26.48-20.48,51.2-58.95,62.46-89.97C233.79,299.3,235.69,292.43,237.15,285.4L237.15,285.4z"/>
	<path id="XMLID_40_" class="st1" d="M238.47,303.1c-4.83,8.05-10.09,15.51-15.36,22.24c3.22-6.58,6-13.17,8.34-19.46
		c2.49-6.73,4.39-13.6,5.85-20.63c-4.97,8.05-10.24,15.8-16.09,22.67c-25.31,30.13-54.27,48.86-74.61,59.54l-2.93-5.85l4.39-2.19
		c26.77-13.46,55.15-43.15,70.36-68.61c2.78-4.53,5.12-9.07,7.31-13.9c-4.97,5.27-10.24,10.24-15.8,14.77
		c-7.31,6-14.77,11.12-22.09,15.65c5.27-5.12,10.24-10.24,14.48-15.36c4.53-5.56,8.78-11.26,12.58-17.41
		c-7.31,6-15.07,11.26-22.82,15.8c-34.08,19.75-67.73,27.36-90.55,30.28l-0.73-6.44l4.83-0.59c29.84-3.51,66.56-21.65,89.53-40.37
		c4.1-3.36,7.9-6.88,11.56-10.53c-6.58,3.36-13.17,6.14-19.89,8.48c-8.92,3.07-17.7,5.41-26.19,7.17
		c6.73-2.93,13.17-6.14,18.87-9.51c6.14-3.66,12.14-7.61,17.7-12c-8.92,3.07-17.99,5.41-26.92,7.02c-38.77,6.88-73,2.63-95.38-2.49
		l1.46-6.29l4.68,1.17c29.11,6.88,69.92,2.34,98.01-7.31c4.97-1.76,9.8-3.66,14.48-6c-7.31,0.88-14.48,1.32-21.5,1.17
		c-9.51-0.15-18.58-1.02-27.06-2.19c7.31-0.44,14.48-1.32,20.92-2.49c7.02-1.32,13.9-3.07,20.77-5.27
		c-9.51-0.29-18.72-1.02-27.65-2.63c-38.77-6.88-69.49-22.53-88.8-34.96l3.66-5.41l4.1,2.63c25.01,16.53,64.95,26.19,94.65,26.62
		c5.27,0.15,10.39-0.15,15.65-0.73c-7.17-1.61-14.04-3.8-20.63-6.29c-8.92-3.36-17.12-7.31-24.72-11.41
		c7.17,2.05,14.04,3.66,20.63,4.83c7.02,1.32,14.04,1.9,21.21,2.19c-8.78-3.51-17.26-7.31-25.01-11.85
		c-34.08-19.75-57.64-44.91-71.53-63.2l5.27-3.95l2.93,3.8c17.85,24.14,52.08,46.81,79.73,57.49c4.83,1.9,9.8,3.36,14.92,4.68
		c-6.14-3.95-11.85-8.34-17.26-12.87c-7.17-6.29-13.6-12.73-19.31-19.16c6,4.39,12,8.34,17.7,11.56c6.14,3.51,12.58,6.58,19.16,9.36
		c-7.02-6.29-13.75-12.73-19.46-19.75c-25.75-29.55-39.2-61.29-46.08-83.24l6.29-1.9l1.32,4.68c8.63,28.67,32.91,61.73,55.3,81.19
		c3.95,3.51,8.05,6.58,12.43,9.51c-4.39-5.85-8.34-11.85-11.7-17.99c-4.53-8.34-8.48-16.53-11.56-24.58
		c4.1,6.14,8.34,11.85,12.73,16.97c4.53,5.41,9.51,10.53,14.92,15.36c-4.53-8.34-8.48-16.68-11.56-25.16
		c-13.46-37.01-15.21-71.39-14.19-94.35l6.58,0.44l-0.29,4.83c-1.76,29.99,9.8,69.34,24.14,95.23c2.49,4.53,5.41,8.92,8.34,13.17
		c-2.05-7.02-3.8-14.04-4.83-21.07c-1.46-9.36-2.19-18.43-2.49-27.06c1.76,7.17,3.8,14.04,6.14,20.19
		c2.49,6.73,5.41,13.17,8.78,19.46c-1.46-9.36-2.19-18.58-2.19-27.65c0-39.35,10.09-72.27,19.02-93.48l6,2.63l-1.9,4.39
		c-11.85,27.5-14.48,68.46-9.8,97.72c0.88,5.12,1.9,10.24,3.36,15.36c0.44-7.31,1.32-14.48,2.63-21.5
		c1.76-9.22,4.1-17.99,6.88-26.19c-0.73,7.31-1.17,14.48-1.17,21.07c0,7.17,0.59,14.34,1.61,21.36c1.9-9.22,4.24-18.29,7.31-26.77
		c13.46-37.01,34.23-64.51,49.74-81.48l4.68,4.53l-3.36,3.51c-20.63,21.8-37.01,59.39-42.72,88.5c-1.02,5.12-1.61,10.24-2.05,15.51
		c2.93-6.73,6.14-13.17,9.8-19.16c4.83-8.19,10.09-15.51,15.51-22.38c-3.22,6.58-6.14,13.17-8.34,19.46
		c-2.49,6.73-4.39,13.6-5.85,20.48c4.97-8.05,10.24-15.65,16.09-22.67c25.31-30.13,54.27-48.86,74.61-59.54l2.93,5.85l-4.39,2.19
		c-26.77,13.46-55.15,43.15-70.36,68.61c-2.63,4.53-5.12,9.07-7.17,13.9c4.97-5.27,10.24-10.24,15.8-14.77
		c7.31-6,14.77-11.12,22.24-15.65c-5.27,5.12-10.24,10.39-14.48,15.36c-4.53,5.41-8.78,11.26-12.43,17.26
		c7.31-5.85,14.92-11.26,22.82-15.8c34.08-19.75,67.73-27.36,90.4-30.43l0.73,6.44l-4.83,0.59c-29.84,3.51-66.56,21.65-89.67,40.37
		c-4.1,3.36-7.9,6.88-11.56,10.53c6.58-3.22,13.17-6.14,19.89-8.48c8.92-3.07,17.7-5.41,26.19-7.17
		c-6.73,2.93-13.17,6.14-18.87,9.51c-6.14,3.51-12,7.61-17.7,12c8.92-3.07,17.99-5.41,26.77-7.02c38.77-6.88,73-2.63,95.38,2.49
		l-1.46,6.29l-4.68-1.17c-29.11-6.88-69.92-2.34-98.01,7.31c-4.97,1.76-9.8,3.66-14.48,6c7.31-0.88,14.48-1.32,21.5-1.17
		c9.51,0.15,18.58,1.02,27.06,2.19c-7.31,0.44-14.48,1.32-20.92,2.49c-7.02,1.32-13.9,3.07-20.63,5.27
		c9.51,0.29,18.72,1.02,27.65,2.63c38.77,6.88,69.49,22.53,88.8,34.96l-3.66,5.41l-4.1-2.63c-25.01-16.53-64.95-26.19-94.5-26.62
		c-5.27-0.15-10.39,0.15-15.65,0.73c7.17,1.76,14.04,3.8,20.63,6.29c8.78,3.36,17.12,7.17,24.58,11.26
		c-7.02-2.05-14.04-3.66-20.48-4.83c-7.02-1.17-14.19-1.9-21.21-2.19c8.78,3.51,17.26,7.31,25.16,11.85
		c34.08,19.75,57.64,44.91,71.53,63.2l-5.27,3.95l-2.93-3.95c-17.85-24.14-52.08-46.81-79.73-57.49c-4.83-1.9-9.95-3.36-14.92-4.68
		c6.14,3.95,11.85,8.34,17.26,13.02c7.17,6.14,13.6,12.58,19.31,19.02c-6-4.39-11.85-8.19-17.7-11.56
		c-6.14-3.66-12.58-6.58-19.31-9.36c7.17,6.29,13.75,12.87,19.6,19.75c25.31,30.13,38.77,61.88,45.64,83.82l-6.29,1.9l-1.32-4.68
		c-8.63-28.82-32.91-61.73-55.3-81.19c-3.95-3.51-8.05-6.58-12.43-9.51c4.39,5.85,8.34,11.85,11.85,18.14
		c4.53,8.34,8.34,16.53,11.56,24.43c-4.1-6.14-8.34-11.85-12.58-16.97c-4.53-5.56-9.65-10.53-14.92-15.36
		c4.53,8.34,8.48,16.68,11.56,25.31c13.46,37.01,15.21,71.39,14.19,94.35l-6.58-0.44l0.29-4.83c1.76-29.99-9.8-69.34-24.14-95.23
		c-2.49-4.53-5.41-8.92-8.34-13.17c2.05,7.02,3.8,14.04,4.83,20.92c1.46,9.36,2.19,18.43,2.49,27.06
		c-1.76-7.17-3.8-14.04-6.14-20.19c-2.49-6.73-5.41-13.17-8.78-19.46c1.46,9.36,2.19,18.58,2.19,27.65
		c0,39.35-10.09,72.27-19.02,93.48l-6-2.63l1.9-4.39c11.85-27.5,14.48-68.46,9.8-97.72c-0.88-5.12-1.9-10.24-3.36-15.21
		c-0.44,7.31-1.17,14.48-2.63,21.36c-1.76,9.36-4.24,18.14-6.88,26.33c0.73-7.31,1.17-14.48,1.17-21.21
		c0-7.17-0.59-14.19-1.61-21.21c-1.9,9.22-4.24,18.29-7.31,26.77c-13.46,37.01-34.23,64.51-49.74,81.48l-4.68-4.53l3.36-3.51
		c20.63-21.8,37.01-59.39,42.72-88.5c1.02-5.12,1.61-10.24,2.05-15.51C245.34,290.67,242.13,297.11,238.47,303.1L238.47,303.1z"/>
	<g id="XMLID_2_">
		<path id="XMLID_39_" class="st2" d="M106.52,444.56v15.95h12.58l-3.66,9.07h-8.92v26.04c0,3.51,1.17,6.44,11.56,6.73h1.76v9.07
			h-1.76c-12-0.29-20.48-4.53-20.48-15.8v-51.05L106.52,444.56L106.52,444.56z"/>
		<path id="XMLID_35_" class="st2" d="M191.95,476.01v35.55h-9.07v-35.55c0-11.85,9.22-15.8,22.09-15.8h6.14l-3.66,9.07h-2.49
			C193.27,469.28,191.95,472.5,191.95,476.01L191.95,476.01z"/>
		<path class="st2" d="M174.83,485.81c0,14.48-11.7,26.19-26.19,26.19s-26.19-11.7-26.19-26.19s11.7-26.19,26.19-26.19
			C163.13,459.78,174.83,471.48,174.83,485.81L174.83,485.81z M131.39,485.81c0,9.51,7.75,17.26,17.26,17.26s17.26-7.75,17.26-17.26
			c0-9.51-7.75-17.26-17.26-17.26C139.14,468.7,131.39,476.31,131.39,485.81L131.39,485.81z"/>
		<path class="st2" d="M209.8,485.81c0-14.19,11.41-25.6,25.6-25.6h20.04v51.2H235.4C221.21,511.41,209.8,500,209.8,485.81
			L209.8,485.81z M218.87,485.81c0,9.22,7.46,16.53,16.53,16.53h10.97v-33.06H235.4C226.33,469.28,218.87,476.75,218.87,485.81
			L218.87,485.81z"/>
		<path id="XMLID_16_" class="st2" d="M316.15,511.56v-51.35h19.46c12.87,0,22.09,3.95,22.09,15.8v35.55h-9.07v-35.55
			c0-3.66-1.17-6.73-13.02-6.73h-10.53v42.28L316.15,511.56L316.15,511.56z"/>
		<path id="XMLID_15_" class="st2" d="M406.55,496.05c0,10.09-8.78,15.36-18.43,15.36h-20.77v-9.07h20.77
			c6.88,0,9.36-3.22,9.36-6.29c0-3.51-2.78-5.41-6.44-6.44c-3.36-1.02-8.63-1.9-11.56-2.63c-6.88-1.76-12.73-4.83-12.73-13.31
			c0-10.68,10.53-13.46,15.07-13.46h21.94l-3.66,9.07h-18.29c-3.51,0-6,1.9-6,4.39c0,2.19,1.76,3.51,4.68,4.39
			c2.93,0.88,6.73,1.46,10.53,2.34C398.65,482.3,406.55,485.52,406.55,496.05L406.55,496.05z"/>
		<path id="XMLID_14_" class="st2" d="M87.79,496.05c0,10.09-8.63,15.36-18.43,15.36H48.59v-9.07h20.63c7.02,0,9.36-3.22,9.36-6.29
			c0-3.51-2.78-5.41-6.44-6.44c-3.66-1.17-8.48-1.76-11.26-2.49c-6.88-1.76-13.02-4.83-13.02-13.46c0-10.68,10.53-13.46,15.07-13.46
			h21.94l-3.66,9.07H62.93c-3.51,0-6,1.9-6,4.39c0,2.19,1.76,3.51,4.68,4.39c2.93,0.88,6.73,1.46,10.53,2.34
			C79.9,482.3,87.79,485.52,87.79,496.05L87.79,496.05z"/>
		<path class="st2" d="M464.19,485.81c0,14.48-11.7,26.19-26.19,26.19s-26.19-11.7-26.19-26.19s11.7-26.19,26.19-26.19
			C452.48,459.78,464.19,471.48,464.19,485.81L464.19,485.81z M420.89,485.81c0,9.51,7.75,17.26,17.26,17.26s17.26-7.75,17.26-17.26
			c0-9.51-7.75-17.26-17.26-17.26C428.49,468.7,420.89,476.31,420.89,485.81L420.89,485.81z"/>
		<path id="XMLID_11_" class="st2" d="M306.2,502.49v9.07h-17.99c-12.87,0-22.24-3.95-22.24-15.8v-19.6
			c0-11.85,9.22-15.8,22.24-15.8h15.51l-3.66,9.07h-11.85c-11.85,0-13.17,3.07-13.17,6.73v4.68h20.48l-3.66,9.07h-16.82v5.85
			c0,3.66,1.32,6.73,13.17,6.73L306.2,502.49L306.2,502.49z"/>
	</g>
	<g id="XMLID_3_">
		<path id="XMLID_10_" class="st3" d="M197.8,223.09c0,0.73,0.15,1.32,1.32,1.32h0.73v1.76h-9.07v-1.76h0.73
			c1.17,0,1.32-0.59,1.32-1.32v-11.85c0-0.73-0.15-1.32-1.32-1.46h-0.73v-1.61l6.88-0.73v3.8l0,0c0.88-2.34,3.36-3.95,5.85-3.95
			c0.29,0,0.73,0,1.17,0.15v4.68c-0.44-0.15-1.17-0.15-1.76-0.15c-3.66,0-4.97,2.63-4.97,6L197.8,223.09L197.8,223.09z"/>
		<path class="st3" d="M211.11,217.82c0,3.66,1.76,5.71,4.39,5.71c2.49,0,3.66-1.46,4.1-3.07h4.53c-1.46,4.39-4.53,6.29-8.63,6.29
			c-5.85,0-9.51-3.95-9.51-9.8c0-5.56,3.8-9.8,9.51-9.8c6,0,9.22,4.97,8.92,10.68H211.11z M219.45,215.33
			c-0.15-3.07-1.61-4.97-3.95-4.97c-3.36,0-4.24,2.78-4.39,4.97H219.45z"/>
		<path id="XMLID_7_" class="st3" d="M233.5,207.73h3.8v2.63h-3.8v10.53c0,1.76,0.44,2.19,2.19,2.19c0.59,0,1.02,0,1.61-0.15v3.22
			c-0.88,0.15-1.9,0.15-2.93,0.15c-3.07,0-5.85-0.73-5.85-4.39v-11.56h-3.22v-2.63h3.07v-5.56h5.12V207.73z"/>
		<path id="XMLID_6_" class="st3" d="M246.51,210.21L246.51,210.21c1.17-1.76,3.36-3.07,5.56-3.07c5.41,0,6.73,3.07,6.73,7.61v8.19
			c0,0.73,0.15,1.32,1.32,1.32h0.73v1.76h-9.22v-1.76h0.73c1.17,0,1.32-0.59,1.32-1.32v-7.61c0-3.07-0.88-4.53-3.22-4.53
			c-2.78,0-3.95,1.46-3.95,5.27v6.88c0,0.73,0.15,1.32,1.32,1.32h0.73v1.76h-9.07v-1.76h0.73c1.17,0,1.32-0.59,1.32-1.32v-19.02
			c0-0.73-0.15-1.32-1.32-1.46h-0.73v-1.61l7.02-0.73V210.21z"/>
		<path class="st3" d="M264.95,211.09c0-0.73-0.15-1.32-1.32-1.46h-0.73v-1.61l7.02-0.73v15.65c0,0.73,0.15,1.32,1.32,1.32h0.73
			v1.76h-9.07v-1.76h0.73c1.17,0,1.32-0.59,1.32-1.32V211.09L264.95,211.09z M270.07,204.8h-5.12v-4.24h5.12V204.8z"/>
		<path id="XMLID_4_" class="st3" d="M280.75,210.36L280.75,210.36c1.46-2.05,3.66-3.07,5.71-3.07c5.41,0,6.73,3.07,6.73,7.61v8.19
			c0,0.73,0.15,1.32,1.32,1.32h0.73v1.76h-9.07v-1.76h0.73c1.17,0,1.32-0.59,1.32-1.32v-7.61c0-3.07-0.88-4.53-3.22-4.53
			c-2.78,0-3.95,1.46-3.95,5.27v6.88c0,0.73,0.15,1.32,1.32,1.32h0.73v1.76h-9.07v-1.76h0.73c1.17,0,1.32-0.59,1.32-1.32v-11.85
			c0-0.73-0.15-1.32-1.32-1.46h-0.73v-1.61l6.88-0.73L280.75,210.36L280.75,210.36z"/>
		<path id="XMLID_20_" class="st3" d="M305.76,218.11l-1.32,1.32v3.66c0,0.73,0.15,1.32,1.32,1.32h0.73v1.76h-9.07v-1.76h0.73
			c1.17,0,1.32-0.59,1.32-1.32v-19.02c0-0.73-0.15-1.32-1.32-1.32h-0.73v-1.61l7.02-0.73v14.63l3.36-3.51
			c0.88-0.88,0.73-1.76-0.44-1.9h-0.73v-1.9h10.39v1.76h-0.73c-1.17,0-2.49,0.73-3.36,1.61l-3.66,3.51l5.56,8.34
			c0.59,0.88,1.02,1.32,2.19,1.46h0.73v1.76h-7.02L305.76,218.11z"/>
		<rect id="XMLID_21_" x="320.1" y="220.75" class="st3" width="5.56" height="5.56"/>
	</g>
</g>
</svg>
