<svg width="28" height="22" viewBox="0 0 28 22" fill="none" xmlns="http://www.w3.org/2000/svg">
<path d="M27.0625 2.62587C26.0857 3.04724 25.0227 3.35051 23.9277 3.46862C25.0645 2.79326 25.9158 1.7263 26.3219 0.467926C25.2552 1.10251 24.0866 1.54748 22.8679 1.78312C22.3586 1.23861 21.7426 0.804833 21.0583 0.50881C20.3739 0.212787 19.636 0.0608663 18.8904 0.0625132C15.8738 0.0625132 13.4477 2.50776 13.4477 5.50845C13.4477 5.92982 13.4987 6.3512 13.5817 6.75661C9.06474 6.52038 5.03615 4.36244 2.35787 1.05849C1.86986 1.89203 1.61413 2.84111 1.61728 3.80699C1.61728 5.69679 2.57814 7.36313 4.04337 8.34314C3.17989 8.30914 2.33662 8.0718 1.58216 7.65043V7.71747C1.58216 10.3638 3.45281 12.5569 5.94594 13.0613C5.47782 13.1828 4.99627 13.2451 4.51263 13.2464C4.15829 13.2464 3.82311 13.2113 3.48473 13.1634C4.17425 15.3213 6.18216 16.8887 8.57314 16.9398C6.70249 18.405 4.3594 19.2669 1.8152 19.2669C1.35871 19.2669 0.937335 19.251 0.5 19.1999C2.91332 20.7481 5.77675 21.642 8.86044 21.642C18.8713 21.642 24.3491 13.3486 24.3491 6.15009C24.3491 5.91386 24.3491 5.67764 24.3331 5.44141C25.393 4.6657 26.3219 3.70484 27.0625 2.62587Z" fill="white"/>
</svg>
